<?xml version="1.0" encoding="UTF-8"?>
<svg width="24px" height="24px" viewBox="0 0 24 24" version="1.1" xmlns="http://www.w3.org/2000/svg">
    <path
        d="M12,14 C14.21,14 16,12.21 16,10 L16,4 C16,1.79 14.21,0 12,0 C9.79,0 8,1.79 8,4 L8,10 C8,12.21 9.79,14 12,14 Z"
        fill="#666666" />
    <path
        d="M19,10 C19,13.87 15.87,17 12,17 C8.13,17 5,13.87 5,10 L3,10 C3,14.41 6.72,18.09 11,18.44 L11,22 L13,22 L13,18.44 C17.28,18.09 21,14.41 21,10 L19,10 Z"
        fill="#666666" />
</svg>
